<?xml version="1.0" encoding="utf-8"?>
<svg version="1.1" id="Layer_1" xmlns="http://www.w3.org/2000/svg" xmlns:xlink="http://www.w3.org/1999/xlink" x="0px" y="0px"
	 viewBox="0 0 128 480" style="enable-background:new 0 0 128 480;" xml:space="preserve">
<style type="text/css">
	.st0{fill:#CCCCCC;}
	.st1{fill:#0066CC;}
	.st2{fill:#FFFFFF;}
	.button{font-family:'ArialMT'; font-size:14px;}
	.st5{fill:#FF0000;}
	.st6{fill:none;stroke:#555555;}
	.st7{fill:none;stroke:#FFFFFF;}
	.line_16px{fill:none;stroke:#333333;stroke-width:16;}
	.line_10px{fill:none;stroke:#333333;stroke-width:10;}
	.line_5px{fill:none;stroke:#333333;stroke-width:5;}
	.line_1px{fill:none;stroke:#333333;stroke-width:1;}
	.st12{fill:#CCCCCC; stroke:#CCCCCC;}
	.st13{fill:#555555;}
	.st14{fill:#820AC3;stroke:#CCCCCC;}
	.st15{fill:#FFD300;stroke:#CCCCCC;}
	.st16{fill:#FFFF00;stroke:#CCCCCC;}
	.st17{fill:#A2F300;stroke:#CCCCCC;}
	.st18{fill:#00DB00;stroke:#CCCCCC;}
	.st19{fill:#FFAA00;stroke:#CCCCCC;}
	.st20{fill:#00B7FF;stroke:#CCCCCC;}
	.st21{fill:#FF7400;stroke:#CCCCCC;}
	.st22{fill:#1449C4;stroke:#CCCCCC;}
	.st23{fill:#FF0000;stroke:#CCCCCC;}
	.st24{stroke:#CCCCCC;}
	.st25{fill:#FFFFFF;stroke:#CCCCCC;}
	.st26{fill:#DB007C;stroke:#CCCCCC;}
	.st27{fill:#4117C7;stroke:#CCCCCC;}
    #swatches .active rect {stroke:#666666;stroke-width:2;}
    #tools .active rect {stroke:#666666;stroke-width:1;}
    #tools .active rect {fill:#DDDDDD}
    #tool-size .active line {stroke:#EEEEEE}
</style>

	<defs>
        <g id="divider">
            <line class="st6" x1="2" y1="1" x2="126" y2="1"/>
            <line class="st7" x1="2" y1="2" x2="126" y2="2"/>
        </g>
	</defs>

    <rect class="st0" width="128" height="480"/>

     <!--<g id="button-save">-->
         <!--<rect x="10" y="438" class="st1" width="108" height="32"/>-->
         <!--<text transform="matrix(1 0 0 1 30.5972 458.7813)" class="st2 button">Save As...</text>-->
     <!--</g>-->

    <!--<g id="button-clear">-->
        <!--<rect x="10" y="399.3" class="st5" width="108" height="32"/>-->
        <!--<text transform="matrix(1 0 0 1 45.7729 420.0566)" class="st2 button">Clear</text>-->
    <!--</g>-->

    <!-- Divider -->
    <use x="0" y="300" xlink:href="#divider" />

    <g id="tool-size">
        <g>
            <rect x="10" y="263.9" class="st0" width="108" height="26"/>
            <line class="line_16px" x1="10" y1="276.9" x2="118" y2="276.9"/>
        </g>
        <g>
            <rect x="10" y="243.9" class="st0" width="108" height="20"/>
            <line class="line_10px" x1="10" y1="253.9" x2="118" y2="253.9"/>
        </g>
        <g>
            <rect x="10" y="228.9" class="st0" width="108" height="15"/>
            <line class="line_5px" x1="10" y1="236.4" x2="118" y2="236.4"/>
        </g>
        <g class="active">
            <rect x="10" y="217.9" class="st0" width="108" height="11"/>
            <line class="line_1px" x1="10" y1="223.4" x2="118" y2="223.4"/>
        </g>
    </g>

    <!-- Divider -->
    <use x="0" y="207" xlink:href="#divider" />

    <g id="tools">
        <g id="eraser">
            <rect x="86.5" y="166.5" class="st12" width="31" height="31"/>
            <path class="st13" d="M101.1,175.9l1.9-2h3.5c1.9,0,3.7,0,3.9,0c0.5,0,0.6,0,0.6,0.2c-0.1,0.1-2.4,2.6-6.5,6.9l-1.7,1.8h-4.1h-4.1
            l0.1-0.1c0,0,1.1-1.2,2.3-2.5C98.1,178.9,100.1,177,101.1,175.9L101.1,175.9z M111.4,176c-1,1.1-2.4,2.5-5.5,5.8
            c-1,1.1-1.9,2-2,2.1l-0.1,0.1l-0.3,1.4c-0.5,2.3-0.7,3.3-0.7,3.3s6.4-6.7,7.8-8.2c0.2-0.3,0.2-0.2,0.4-1.1
            c0.4-1.6,0.8-3.7,0.7-3.7C111.7,175.7,111.5,175.8,111.4,176L111.4,176z M93.4,185.1c-0.1,0.4-0.4,1.5-0.6,2.6
            c-0.2,1.1-0.4,2-0.5,2.1c0,0.1,0,0.2,0,0.2s0.1,0.1,0.4,0.1c0.1,0,1.4,0,4.1,0h3.9l0,0c0.1-0.3,0.3-1.2,0.8-3.6
            c0.4-1.6,0.4-1.8,0.4-1.9c0,0-0.2,0-4.2,0h-4.2L93.4,185.1L93.4,185.1z"/>
        </g>
        <g id="brush">
            <rect x="48.5" y="166.5" class="st12" width="31" height="31"/>
            <path class="st13" d="M73.5,172.3c0.2,0,0.2,0,0.2,0s-0.2,0.2-0.4,0.5c-0.2,0.2-0.9,1.1-1.5,1.9c-2.5,3.3-3.9,5-3.9,5.1h-0.1
            c-0.2-0.1-0.4-0.2-1.4-1.1l-0.3-0.3l2.9-2.9l2.9-2.9l0.7-0.2C73,172.3,73.4,172.3,73.5,172.3L73.5,172.3z M65.4,179.1
            c-0.4,0.4-1.1,1.2-3,3.5c-0.9,1-0.9,1.1-0.9,1.1s0.2,0,0.4,0c0.5,0,0.7,0,1,0.1c0.7,0.4,1.3,0.9,1.6,1.8c0,0.1,0.1,0.2,0.1,0.2
            l0,0c0,0,0.5-0.9,1.1-2.1c1.2-2.3,1.5-2.8,1.7-3.1c0.1-0.2,0.1-0.2,0.1-0.2s-0.3-0.2-0.6-0.5c-0.7-0.6-1.1-1-1.2-1
            C65.7,179,65.6,179,65.4,179.1L65.4,179.1z M60.8,184.6c-0.2,0-0.5,0.2-0.7,0.4c-0.3,0.2-0.5,0.5-1.1,1.6c-1.1,1.8-1.7,2.5-2.6,3
            c-0.5,0.3-1.3,0.5-1.8,0.5c-0.2,0-0.3,0-0.3,0c-0.1,0.1,0.2,0.4,0.5,0.8c0.3,0.3,0.5,0.5,0.8,0.6c0.6,0.3,1.6,0.5,2.6,0.4
            c1.3-0.1,2.1-0.2,2.7-0.7c0.5-0.4,1.2-1.1,1.6-1.6s0.7-1.4,0.9-2.1c0.1-0.5,0.2-1.1,0.1-1.4c-0.1-0.6-0.7-1.1-1.5-1.3
            C61.7,184.6,61,184.5,60.8,184.6L60.8,184.6z"/>
        </g>
        <g id="pen" class="active">
            <rect x="10.5" y="166.5" class="st12" width="31" height="31"/>
            <path class="st13" d="M33.2,172.4c0.2-0.1,0.4,0,0.8,0.4c0.4,0.4,1.3,1.3,1.5,1.7c0.2,0.3,0.2,0.5,0,0.8c-0.2,0.2-0.3,0.4-1.5,1.6
            l-1.1,1.1l-1.3-1.3c-0.7-0.7-1.3-1.3-1.4-1.4l-0.2-0.2l0.3-0.3c0.3-0.3,1.5-1.4,1.8-1.8C32.7,172.6,33,172.4,33.2,172.4
            L33.2,172.4z M28.1,177.1c-0.9,0.9-7.7,7.7-7.7,7.7s0.1,0.1,0.2,0.3l0.2,0.3l4.2-4.2l4.2-4.2l-0.2-0.2c-0.1-0.1-0.2-0.2-0.3-0.2
            C28.8,176.5,28.5,176.7,28.1,177.1L28.1,177.1z M26.1,182.2l-4.1,4.1l0.6,0.6l0.6,0.6l1.7-1.7c2.1-2.1,6.4-6.5,6.6-6.6l0.1-0.1
            l-0.1-0.2c-0.1-0.1-0.3-0.3-0.6-0.5c-0.3-0.2-0.5-0.4-0.5-0.4l-0.1-0.1L26.1,182.2L26.1,182.2z M19,186.4
            c-0.2,0.4-2.6,5.3-2.6,5.3s5.5-2.7,5.5-2.8c0,0-1.8-1.8-2.4-2.4l-0.4-0.4L19,186.4L19,186.4z"/>
        </g>
    </g>

    <!-- Divider -->
    <use x="0" y="156" xlink:href="#divider" />

    <!--Selected Color-->
    <rect id="selected-color" x="38" y="37.9"  width="52" height="52"/>

    <g id="swatches">
    <g><rect x="10" y="10" class="st15" width="24" height="24"/></g>
    <g><rect x="38" y="10" class="st16" width="24" height="24"/></g>
    <g><rect x="66" y="10" class="st17" width="24" height="24"/></g>
    <g><rect x="94" y="10" class="st18" width="24" height="24"/></g>
    <g><rect x="10" y="38" class="st19" width="24" height="24"/></g>
    <g><rect x="94" y="38" class="st20" width="24" height="24"/></g>
    <g><rect x="10" y="66" class="st21" width="24" height="24"/></g>
    <g><rect x="94" y="65.8" class="st22" width="24" height="24"/></g>
    <g><rect x="10" y="94" class="st23" width="24" height="24"/></g>
    <g><rect x="38" y="94" class="st26" width="24" height="24"/></g>
    <g><rect x="66" y="94" class="st14" width="24" height="24"/></g>
    <g><rect x="94" y="94" class="st27" width="24" height="24"/></g>

    <g class="active"><rect x="10" y="122" class="st24" width="52" height="24"/></g>
    <g><rect x="66.2" y="122" class="st25" width="52" height="24"/></g>
    </g>
</svg>
