<?xml version="1.0" encoding="utf-8"?>
<!-- Generator: Adobe Illustrator 19.1.0, SVG Export Plug-In . SVG Version: 6.00 Build 0)  -->
<svg version="1.1" id="Layer_1" xmlns="http://www.w3.org/2000/svg" xmlns:xlink="http://www.w3.org/1999/xlink" x="0px" y="0px"
	 viewBox="-233 180.9 128 480" style="enable-background:new -233 180.9 128 480;" xml:space="preserve">
<style type="text/css">
	.st0{fill:#666666;}
	.st1{fill:#0066CC;}
	.st2{fill:#FFFFFF;}
	.st3{font-family:'ArialMT';}
	.st4{font-size:14px;}
	.st5{fill:#FF0000;}
	.st6{fill:none;stroke:#333333;stroke-miterlimit:10;}
	.st7{fill:none;stroke:#999999;stroke-miterlimit:10;}
	.st8{fill:none;stroke:#333333;stroke-width:16;stroke-miterlimit:10;}
	.st9{fill:none;stroke:#333333;stroke-width:10;stroke-miterlimit:10;}
	.st10{fill:none;stroke:#333333;stroke-width:5;stroke-miterlimit:10;}
	.st11{fill:#CCCCCC;}
	.st12{fill:#820AC3;}
	.st13{fill:#FFD300;}
	.st14{fill:#FFFF00;}
	.st15{fill:#A2F300;}
	.st16{fill:#00DB00;}
	.st17{fill:#FFAA00;}
	.st18{fill:#00B7FF;}
	.st19{fill:#FF7400;}
	.st20{fill:#1449C4;}
	.st21{fill:#DB007C;}
	.st22{fill:#4117C7;}
</style>
<rect x="-233" y="180.9" class="st0" width="128" height="480"/>
<g id="button_x5F_save" onclick="console.log(this);">
	<rect x="-223" y="618.9" class="st1" width="108" height="32"/>
	<text transform="matrix(1 0 0 1 -202.4029 639.6917)" class="st2 st3 st4">Save As...</text>
</g>
<g id="button_x5F_clear" onclick="console.log(this);">
	<rect x="-223" y="580.2" class="st5" width="108" height="32"/>
	<text transform="matrix(1 0 0 1 -187.2271 600.9662)" class="st2 st3 st4">Clear</text>
</g>
<g id="divider_2_">
	<line class="st6" x1="-231" y1="480" x2="-107" y2="480"/>
	<line class="st7" x1="-231" y1="481" x2="-107" y2="481"/>
</g>
<g id="size">
	<g id="size_x5F_16">
		<rect x="-223" y="444.8" class="st0" width="108" height="26"/>
		<line class="st8" x1="-223" y1="457.8" x2="-115" y2="457.8"/>
	</g>
	<g id="size_x5F_10">
		<rect x="-223" y="424.8" class="st0" width="108" height="20"/>
		<line class="st9" x1="-223" y1="434.8" x2="-115" y2="434.8"/>
	</g>
	<g id="size_x5F_5">
		<rect x="-223" y="409.8" class="st0" width="108" height="15"/>
		<line class="st10" x1="-223" y1="417.3" x2="-115" y2="417.3"/>
	</g>
	<g id="size_x5F_1">
		<rect x="-223" y="398.8" class="st0" width="108" height="11"/>
		<line class="st6" x1="-223" y1="404.3" x2="-115" y2="404.3"/>
	</g>
</g>
<g id="divider">
	<line class="st6" x1="-231" y1="388.4" x2="-107" y2="388.4"/>
	<line class="st7" x1="-231" y1="389.4" x2="-107" y2="389.4"/>
</g>
<g id="tools">
	<g id="eraser">
		<rect x="-146.5" y="347.4" class="st0" width="31" height="31"/>
		<path class="st11" d="M-131.9,356.8l1.9-2h3.5c1.9,0,3.7,0,3.9,0c0.5,0,0.6,0,0.6,0.2c-0.1,0.1-2.4,2.6-6.5,6.9l-1.7,1.8h-4.1
			h-4.1l0.1-0.1c0,0,1.1-1.2,2.3-2.5C-134.9,359.8-132.9,357.9-131.9,356.8L-131.9,356.8z M-121.6,356.9c-1,1.1-2.4,2.5-5.5,5.8
			c-1,1.1-1.9,2-2,2.1l-0.1,0.1l-0.3,1.4c-0.5,2.3-0.7,3.3-0.7,3.3c0,0,6.4-6.7,7.8-8.2c0.2-0.3,0.2-0.2,0.4-1.1
			c0.4-1.6,0.8-3.7,0.7-3.7C-121.3,356.6-121.5,356.7-121.6,356.9L-121.6,356.9z M-139.6,366c-0.1,0.4-0.4,1.5-0.6,2.6
			c-0.2,1.1-0.4,2-0.5,2.1c0,0.1,0,0.2,0,0.2c0,0,0.1,0.1,0.4,0.1c0.1,0,1.4,0,4.1,0h3.9v0c0.1-0.3,0.3-1.2,0.8-3.6
			c0.4-1.6,0.4-1.8,0.4-1.9c0,0-0.2,0-4.2,0h-4.2L-139.6,366L-139.6,366z"/>
	</g>
	<g id="brush">
		<rect x="-184.5" y="347.4" class="st0" width="31" height="31"/>
		<path class="st11" d="M-159.5,353.2c0.2,0,0.2,0,0.2,0c0,0-0.2,0.2-0.4,0.5c-0.2,0.2-0.9,1.1-1.5,1.9c-2.5,3.3-3.9,5-3.9,5.1
			c0,0-0.1,0-0.1,0c-0.2-0.1-0.4-0.2-1.4-1.1l-0.3-0.3l2.9-2.9l2.9-2.9l0.7-0.2C-160,353.2-159.6,353.2-159.5,353.2L-159.5,353.2z
			 M-167.6,360c-0.4,0.4-1.1,1.2-3,3.5c-0.9,1-0.9,1.1-0.9,1.1c0,0,0.2,0,0.4,0c0.5,0,0.7,0,1,0.1c0.7,0.4,1.3,0.9,1.6,1.8
			c0,0.1,0.1,0.2,0.1,0.2h0c0,0,0.5-0.9,1.1-2.1c1.2-2.3,1.5-2.8,1.7-3.1c0.1-0.2,0.1-0.2,0.1-0.2c0,0-0.3-0.2-0.6-0.5
			c-0.7-0.6-1.1-1-1.2-1C-167.3,359.9-167.4,359.9-167.6,360L-167.6,360z M-172.2,365.5c-0.2,0-0.5,0.2-0.7,0.4
			c-0.3,0.2-0.5,0.5-1.1,1.6c-1.1,1.8-1.7,2.5-2.6,3c-0.5,0.3-1.3,0.5-1.8,0.5c-0.2,0-0.3,0-0.3,0c-0.1,0.1,0.2,0.4,0.5,0.8
			c0.3,0.3,0.5,0.5,0.8,0.6c0.6,0.3,1.6,0.5,2.6,0.4c1.3-0.1,2.1-0.2,2.7-0.7c0.5-0.4,1.2-1.1,1.6-1.6c0.4-0.5,0.7-1.4,0.9-2.1
			c0.1-0.5,0.2-1.1,0.1-1.4c-0.1-0.6-0.7-1.1-1.5-1.3C-171.3,365.5-172,365.4-172.2,365.5L-172.2,365.5z"/>
	</g>
	<g id="pencil">
		<rect x="-222.5" y="347.4" class="st0" width="31" height="31"/>
		<path class="st11" d="M-199.8,353.3c0.2-0.1,0.4,0,0.8,0.4c0.4,0.4,1.3,1.3,1.5,1.7c0.2,0.3,0.2,0.5,0,0.8
			c-0.2,0.2-0.3,0.4-1.5,1.6l-1.1,1.1l-1.3-1.3c-0.7-0.7-1.3-1.3-1.4-1.4l-0.2-0.2l0.3-0.3c0.3-0.3,1.5-1.4,1.8-1.8
			C-200.3,353.5-200,353.3-199.8,353.3L-199.8,353.3z M-204.9,358c-0.9,0.9-7.7,7.7-7.7,7.7s0.1,0.1,0.2,0.3l0.2,0.3l4.2-4.2
			l4.2-4.2l-0.2-0.2c-0.1-0.1-0.2-0.2-0.3-0.2C-204.2,357.4-204.5,357.6-204.9,358L-204.9,358z M-206.9,363.1l-4.1,4.1l0.6,0.6
			l0.6,0.6l1.7-1.7c2.1-2.1,6.4-6.5,6.6-6.6l0.1-0.1l-0.1-0.2c-0.1-0.1-0.3-0.3-0.6-0.5s-0.5-0.4-0.5-0.4l-0.1-0.1L-206.9,363.1
			L-206.9,363.1z M-214,367.3c-0.2,0.4-2.6,5.3-2.6,5.3s5.5-2.7,5.5-2.8c0,0-1.8-1.8-2.4-2.4l-0.4-0.4L-214,367.3L-214,367.3z"/>
	</g>
</g>
<g id="divider_1_">
	<line class="st6" x1="-231" y1="336.4" x2="-107" y2="336.4"/>
	<line class="st7" x1="-231" y1="337.4" x2="-107" y2="337.4"/>
</g>
<g id="swatches">
	<rect id="selected-color" x="-195" y="218.8" class="st12" width="52" height="52"/>
	<rect x="-223" y="190.9" class="st13" width="24" height="24"/>
	<rect x="-195" y="190.9" class="st14" width="24" height="24"/>
	<rect x="-167" y="190.9" class="st15" width="24" height="24"/>
	<rect x="-139" y="190.9" class="st16" width="24" height="24"/>
	<rect x="-223" y="218.9" class="st17" width="24" height="24"/>
	<rect x="-139" y="218.9" class="st18" width="24" height="24"/>
	<rect x="-223" y="246.9" class="st19" width="24" height="24"/>
	<rect x="-139" y="246.7" class="st20" width="24" height="24"/>
	<rect x="-223" y="274.9" class="st5" width="24" height="24"/>
	<rect x="-223" y="302.9" width="52" height="24"/>
	<path class="st2" d="M-115,302.9h-51.8v24h51.8V302.9L-115,302.9z"/>
	<rect x="-195" y="274.9" class="st21" width="24" height="24"/>
	<rect x="-167" y="274.9" class="st12" width="24" height="24"/>
	<rect x="-139" y="274.9" class="st22" width="24" height="24"/>
</g>
</svg>
